<?xml version="1.0" encoding="UTF-8" standalone="no"?>
<!DOCTYPE svg PUBLIC "-//W3C//DTD SVG 1.1//EN" "http://www.w3.org/Graphics/SVG/1.1/DTD/svg11.dtd">
<svg version="1.1" xmlns="http://www.w3.org/2000/svg" xmlns:xlink="http://www.w3.org/1999/xlink" preserveAspectRatio="xMidYMid meet" viewBox="0 0 40 40" width="40" height="40"><defs><path d="M10.85 3.73L11.02 3.75L11.19 3.77L11.36 3.79L11.53 3.83L11.7 3.86L11.87 3.91L12.03 3.96L12.19 4.01L12.35 4.07L12.51 4.14L12.67 4.21L12.82 4.29L12.97 4.37L13.12 4.46L13.26 4.55L13.4 4.64L13.54 4.75L13.68 4.85L13.81 4.97L13.94 5.08L14.06 5.2L14.18 5.33L14.3 5.46L14.41 5.59L14.6 5.85L14.77 6.11L14.92 6.37L15.05 6.65L15.17 6.93L15.27 7.21L15.35 7.5L15.41 7.79L15.46 8.08L15.49 8.38L15.5 8.67L15.49 8.97L15.47 9.26L15.43 9.55L15.37 9.84L15.29 10.13L15.2 10.41L15.09 10.68L14.96 10.95L14.82 11.22L14.66 11.47L14.49 11.72L14.3 11.96L14.09 12.18L13.87 12.4L13.63 12.6L13.74 12.85L13.87 13.09L14 13.34L14.14 13.59L14.28 13.85L14.43 14.1L14.59 14.36L14.75 14.62L14.92 14.87L15.1 15.13L15.28 15.39L15.46 15.64L15.65 15.89L15.84 16.14L16.04 16.39L16.24 16.63L16.44 16.87L16.65 17.1L16.85 17.32L17.06 17.55L17.27 17.76L17.49 17.97L17.7 18.17L17.92 18.36L18.13 18.54L18.35 18.71L18.6 18.9L18.86 19.08L19.13 19.25L19.4 19.42L19.68 19.57L19.97 19.73L20.26 19.87L20.55 20.01L20.85 20.14L21.15 20.26L21.46 20.38L21.77 20.49L22.08 20.59L22.4 20.68L22.72 20.77L23.03 20.85L23.35 20.92L23.67 20.99L23.99 21.05L24.31 21.1L24.62 21.14L24.94 21.18L25.25 21.21L25.56 21.24L25.87 21.25L26.17 21.26L26.17 21.31L26.28 21.14L26.39 20.97L26.51 20.8L26.63 20.65L26.76 20.49L26.89 20.34L27.03 20.2L27.18 20.06L27.33 19.93L27.49 19.8L27.65 19.68L27.81 19.57L27.98 19.46L28.15 19.36L28.33 19.27L28.51 19.19L28.7 19.11L28.89 19.04L29.08 18.97L29.28 18.92L29.47 18.87L29.67 18.83L29.88 18.8L30.08 18.78L30.29 18.76L30.5 18.76L30.82 18.77L31.13 18.8L31.44 18.85L31.74 18.91L32.03 19L32.31 19.1L32.59 19.21L32.86 19.34L33.11 19.49L33.36 19.65L33.6 19.83L33.83 20.02L34.04 20.22L34.24 20.44L34.43 20.66L34.61 20.9L34.77 21.15L34.92 21.41L35.05 21.67L35.17 21.95L35.27 22.24L35.35 22.53L35.41 22.83L35.46 23.13L35.49 23.45L35.5 23.77L35.49 24.08L35.46 24.4L35.41 24.7L35.35 25L35.27 25.29L35.17 25.58L35.05 25.86L34.92 26.12L34.77 26.38L34.61 26.63L34.43 26.87L34.24 27.09L34.04 27.31L33.83 27.51L33.6 27.7L33.36 27.88L33.11 28.04L32.86 28.19L32.59 28.32L32.31 28.43L32.03 28.53L31.74 28.62L31.44 28.68L31.13 28.73L30.82 28.76L30.5 28.77L30.29 28.77L30.08 28.75L29.88 28.73L29.68 28.7L29.48 28.66L29.28 28.61L29.08 28.56L28.89 28.49L28.71 28.42L28.52 28.34L28.34 28.26L28.16 28.17L27.99 28.07L27.82 27.96L27.66 27.85L27.5 27.73L27.34 27.6L27.19 27.47L27.04 27.33L26.9 27.19L26.77 27.04L26.64 26.88L26.51 26.73L26.39 26.56L26.28 26.39L26.17 26.22L26.17 26.27L25.9 26.26L25.62 26.25L25.34 26.24L25.05 26.22L24.77 26.2L24.47 26.17L24.18 26.14L23.88 26.1L23.58 26.06L23.29 26.02L22.99 25.97L22.69 25.91L22.39 25.85L22.09 25.79L21.79 25.72L21.5 25.65L21.21 25.57L20.92 25.49L20.63 25.4L20.35 25.31L20.07 25.21L19.79 25.11L19.52 25.01L19.26 24.9L19 24.78L18.75 24.67L18.5 24.54L18.26 24.42L18.01 24.29L17.77 24.15L17.53 24.02L17.3 23.88L17.06 23.74L16.83 23.59L16.6 23.44L16.37 23.29L16.14 23.13L15.92 22.98L15.7 22.81L15.48 22.65L15.26 22.48L15.04 22.31L14.83 22.14L14.62 21.96L14.41 21.78L14.2 21.6L13.99 21.41L13.79 21.22L13.59 21.03L13.39 20.84L13.19 20.64L13 20.44L13 29.47L13.18 29.58L13.35 29.69L13.51 29.81L13.67 29.93L13.82 30.07L13.97 30.2L14.11 30.34L14.25 30.49L14.38 30.65L14.5 30.8L14.62 30.97L14.73 31.13L14.83 31.3L14.93 31.48L15.02 31.66L15.1 31.84L15.17 32.02L15.24 32.21L15.3 32.4L15.35 32.6L15.39 32.79L15.43 32.99L15.46 33.19L15.48 33.4L15.49 33.6L15.5 33.81L15.49 34.12L15.46 34.43L15.41 34.74L15.34 35.03L15.26 35.32L15.16 35.61L15.04 35.88L14.91 36.15L14.76 36.41L14.6 36.65L14.42 36.89L14.23 37.11L14.03 37.33L13.81 37.53L13.59 37.72L13.35 37.89L13.1 38.06L12.84 38.2L12.58 38.33L12.3 38.45L12.02 38.55L11.73 38.63L11.43 38.7L11.13 38.74L10.82 38.77L10.5 38.78L10.18 38.77L9.87 38.74L9.56 38.69L9.26 38.63L8.97 38.54L8.69 38.44L8.41 38.33L8.14 38.2L7.89 38.05L7.64 37.89L7.4 37.71L7.17 37.52L6.96 37.32L6.76 37.1L6.57 36.88L6.39 36.64L6.23 36.39L6.08 36.13L5.95 35.87L5.83 35.59L5.73 35.3L5.65 35.01L5.59 34.71L5.54 34.41L5.51 34.09L5.5 33.78L5.5 33.57L5.52 33.36L5.54 33.15L5.57 32.95L5.61 32.75L5.66 32.55L5.71 32.36L5.77 32.17L5.84 31.98L5.92 31.8L6.01 31.62L6.1 31.44L6.2 31.27L6.3 31.1L6.41 30.93L6.53 30.77L6.65 30.62L6.78 30.47L6.92 30.33L7.06 30.19L7.2 30.05L7.35 29.92L7.51 29.8L7.67 29.69L7.83 29.57L8 29.47L8 13.05L7.83 12.95L7.66 12.84L7.49 12.72L7.33 12.59L7.18 12.46L7.03 12.33L6.89 12.19L6.76 12.04L6.63 11.89L6.51 11.73L6.39 11.57L6.28 11.4L6.18 11.24L6.08 11.06L5.99 10.88L5.91 10.7L5.83 10.52L5.77 10.33L5.71 10.14L5.65 9.95L5.61 9.76L5.57 9.56L5.54 9.36L5.52 9.16L5.51 8.95L5.5 8.75L5.51 8.43L5.54 8.12L5.59 7.81L5.65 7.51L5.73 7.22L5.83 6.93L5.95 6.65L6.08 6.39L6.23 6.13L6.39 5.88L6.57 5.64L6.76 5.41L6.96 5.19L7.17 4.99L7.4 4.8L7.64 4.62L7.89 4.46L8.14 4.31L8.41 4.18L8.69 4.06L8.97 3.96L9.26 3.87L9.56 3.81L9.87 3.76L10.18 3.73L10.5 3.72L10.67 3.72L10.85 3.73ZM8.39 31.66L7.74 32.62L7.5 33.78L7.74 34.93L8.39 35.89L9.35 36.54L10.5 36.78L11.65 36.54L12.61 35.9L13.26 34.94L13.5 33.78L13.26 32.62L12.61 31.66L11.65 31.01L10.5 30.77L9.35 31.01L8.39 31.66ZM28.39 21.65L27.74 22.61L27.5 23.77L27.74 24.92L28.38 25.88L29.34 26.53L30.5 26.77L31.65 26.53L32.61 25.88L33.26 24.92L33.5 23.77L33.26 22.61L32.61 21.65L31.65 21L30.5 20.76L29.35 21L28.39 21.65ZM8.39 6.64L7.74 7.59L7.5 8.75L7.74 9.91L8.38 10.86L9.34 11.51L10.5 11.75L11.65 11.51L12.61 10.86L13.26 9.91L13.5 8.75L13.26 7.59L12.61 6.64L11.65 5.99L10.5 5.75L9.35 5.99L8.39 6.64Z" id="c1glt1EyiS"></path><path d="M32.48 9.36L32.45 9.67L32.4 9.97L32.35 10.26L32.29 10.55L32.21 10.84L32.13 11.12L32.03 11.4L31.93 11.67L31.81 11.93L31.69 12.2L31.55 12.45L31.41 12.7L31.26 12.94L31.1 13.18L30.93 13.41L30.75 13.63L30.56 13.84L30.37 14.05L30.17 14.25L29.96 14.44L29.74 14.63L29.52 14.8L29.29 14.97L29.05 15.12L28.81 15.27L28.57 15.41L28.31 15.54L28.05 15.66L27.79 15.77L27.52 15.87L27.25 15.95L26.97 16.03L26.69 16.1L26.4 16.15L26.11 16.19L25.82 16.22L25.52 16.24L25.22 16.25L24.92 16.24L24.62 16.22L24.33 16.19L24.03 16.15L23.74 16.1L23.45 16.03L23.16 15.95L22.87 15.87L22.58 15.77L22.29 15.66L22 15.54L21.71 15.41L21.42 15.27L21.12 15.12L20.83 14.97L20.53 14.8L20.23 14.63L19.92 14.44L19.62 14.25L19.3 14.05L18.99 13.84L18.67 13.63L18.35 13.41L18.02 13.18L17.68 12.94L17.35 12.7L17 12.45L16.65 12.19L16.29 11.93L15.92 11.67L15.55 11.4L15.17 11.12L14.78 10.84L14.38 10.55L13.98 10.26L13.56 9.96L13.14 9.67L12.71 9.36L12.26 9.06L11.81 8.75L12.26 8.44L12.71 8.13L13.14 7.83L13.56 7.53L13.98 7.24L14.38 6.95L14.78 6.66L15.17 6.38L15.55 6.1L15.92 5.83L16.29 5.56L16.65 5.3L17 5.05L17.34 4.8L17.68 4.56L18.02 4.32L18.35 4.09L18.67 3.87L18.99 3.65L19.3 3.45L19.61 3.25L19.92 3.05L20.23 2.87L20.53 2.7L20.82 2.53L21.12 2.37L21.41 2.23L21.71 2.09L22 1.96L22.29 1.84L22.58 1.73L22.87 1.63L23.16 1.54L23.45 1.47L23.74 1.4L24.03 1.35L24.33 1.31L24.62 1.27L24.92 1.26L25.22 1.25L25.52 1.26L25.82 1.27L26.11 1.31L26.4 1.35L26.69 1.4L26.97 1.47L27.25 1.54L27.52 1.63L27.79 1.73L28.05 1.84L28.31 1.96L28.56 2.09L28.81 2.23L29.05 2.37L29.29 2.53L29.52 2.7L29.74 2.87L29.96 3.06L30.17 3.25L30.37 3.45L30.56 3.65L30.75 3.87L30.93 4.09L31.09 4.32L31.26 4.56L31.41 4.8L31.55 5.05L31.69 5.3L31.81 5.56L31.93 5.83L32.03 6.1L32.13 6.38L32.21 6.66L32.29 6.95L32.35 7.24L32.4 7.53L32.45 7.83L32.48 8.13L32.49 8.44L32.5 8.75L32.49 9.06L32.48 9.36ZM29.04 8.46L29.03 8.31L29.01 8.17L28.98 8.03L28.95 7.9L28.92 7.76L28.88 7.63L28.83 7.5L28.78 7.37L28.73 7.24L28.67 7.12L28.6 7L28.53 6.88L28.46 6.76L28.39 6.65L28.31 6.54L28.22 6.44L28.13 6.34L28.04 6.24L27.95 6.14L27.85 6.05L27.74 5.97L27.64 5.88L27.53 5.8L27.42 5.73L27.3 5.66L27.19 5.59L27.07 5.53L26.94 5.48L26.82 5.42L26.69 5.38L26.56 5.34L26.43 5.3L26.3 5.27L26.16 5.24L26.02 5.22L25.88 5.21L25.74 5.2L25.6 5.2L25.46 5.2L25.32 5.21L25.18 5.22L25.04 5.24L24.91 5.27L24.77 5.3L24.64 5.34L24.51 5.38L24.38 5.42L24.26 5.48L24.14 5.53L24.02 5.59L23.9 5.66L23.79 5.73L23.67 5.8L23.57 5.88L23.46 5.96L23.36 6.05L23.26 6.14L23.16 6.24L23.07 6.34L22.98 6.44L22.9 6.54L22.82 6.65L22.74 6.76L22.67 6.88L22.6 7L22.54 7.12L22.48 7.24L22.42 7.37L22.37 7.49L22.33 7.63L22.29 7.76L22.25 7.9L22.22 8.03L22.2 8.17L22.18 8.31L22.16 8.46L22.16 8.6L22.15 8.75L22.16 8.9L22.16 9.04L22.18 9.18L22.2 9.32L22.22 9.46L22.25 9.6L22.29 9.74L22.33 9.87L22.37 10L22.42 10.13L22.48 10.26L22.54 10.38L22.6 10.5L22.67 10.62L22.74 10.73L22.82 10.85L22.9 10.96L22.98 11.06L23.07 11.16L23.16 11.26L23.26 11.35L23.36 11.45L23.46 11.53L23.57 11.62L23.67 11.69L23.79 11.77L23.9 11.84L24.02 11.9L24.14 11.97L24.26 12.02L24.38 12.07L24.51 12.12L24.64 12.16L24.77 12.2L24.91 12.23L25.04 12.25L25.18 12.27L25.32 12.29L25.46 12.3L25.6 12.3L25.74 12.3L25.89 12.29L26.02 12.27L26.16 12.25L26.3 12.23L26.43 12.2L26.56 12.16L26.69 12.12L26.82 12.07L26.94 12.02L27.07 11.97L27.19 11.9L27.3 11.84L27.42 11.77L27.53 11.69L27.64 11.62L27.74 11.53L27.85 11.45L27.95 11.36L28.04 11.26L28.13 11.16L28.22 11.06L28.31 10.96L28.39 10.85L28.46 10.73L28.53 10.62L28.6 10.5L28.67 10.38L28.73 10.26L28.78 10.13L28.83 10L28.88 9.87L28.92 9.74L28.95 9.6L28.98 9.46L29.01 9.33L29.03 9.18L29.04 9.04L29.05 8.9L29.05 8.75L29.05 8.6L29.04 8.46Z" id="efWGOxZGo"></path></defs><g><g><g><use xlink:href="#c1glt1EyiS" opacity="1" fill="#6f42c1" fill-opacity="1"></use><g><use xlink:href="#c1glt1EyiS" opacity="1" fill-opacity="0" stroke="#000000" stroke-width="1" stroke-opacity="0"></use></g></g><g><use xlink:href="#efWGOxZGo" opacity="1" fill="#9c1d1d" fill-opacity="1"></use></g></g></g></svg>